<svg width="108" height="108" viewBox="0 0 108 108" fill="none" xmlns="http://www.w3.org/2000/svg">
<g clip-path="url(#clip0_229_231)">
<rect width="108" height="108" rx="30" fill="#FEE2E2"/>
<mask id="mask0_229_231" style="mask-type:alpha" maskUnits="userSpaceOnUse" x="0" y="0" width="108" height="108">
<rect width="108" height="108" rx="30" fill="#FDF2F3"/>
</mask>
<g mask="url(#mask0_229_231)">
<path d="M69.3024 81.4188C67.8283 79.5429 68.2038 76.8185 70.1305 75.4113C71.9635 74.0725 74.5276 74.4259 75.9301 76.2107L96.6569 102.587C98.131 104.463 97.7555 107.187 95.8289 108.595C93.9958 109.933 91.4317 109.58 90.0292 107.795L69.3024 81.4188Z" fill="#FCA5A5"/>
<path fill-rule="evenodd" clip-rule="evenodd" d="M74.2379 95.0355C71.332 91.2558 72.0136 85.801 75.7604 82.8507C79.507 79.9022 84.9025 80.5764 87.8084 84.3561L111.783 115.54C112.428 116.379 109.912 119.454 106.167 122.401C102.423 125.347 98.8578 127.058 98.2127 126.219L74.2379 95.0355Z" fill="#FCA5A5"/>
<path fill-rule="evenodd" clip-rule="evenodd" d="M74.2379 95.0355C71.332 91.2558 72.0136 85.801 75.7604 82.8507C79.507 79.9022 84.9025 80.5764 87.8084 84.3561L109.507 112.58C110.152 113.419 107.636 116.494 103.892 119.441C100.147 122.387 96.582 124.098 95.937 123.259L74.2379 95.0355Z" fill="white"/>
<path d="M81.4941 90.1557C80.4185 88.8141 80.6601 86.8498 82.0287 85.8088C83.3488 84.8048 85.2286 85.0359 86.266 86.3299L108.691 114.3C109.766 115.642 109.525 117.606 108.156 118.647C106.836 119.651 104.956 119.42 103.919 118.126L81.4941 90.1557Z" fill="#FFF5F5"/>
<path d="M34.1847 19.8546C50.4677 8.96074 72.3813 13.435 83.0909 29.8397C83.9912 31.2189 84.7821 32.6404 85.4692 34.0909C90.1787 43.7198 90.0737 54.7166 85.8083 64.0295C83.1532 70.0453 78.8281 75.3981 72.992 79.3027C56.709 90.1965 34.7954 85.7225 24.0859 69.3176C13.3764 52.9123 17.9016 30.7487 34.1847 19.8546Z" fill="url(#paint0_linear_229_231)"/>
<ellipse cx="53.3571" cy="49.5305" rx="27.3931" ry="27.3492" transform="rotate(11.5394 53.3571 49.5305)" fill="#FEE2E2"/>
<mask id="mask1_229_231" style="mask-type:alpha" maskUnits="userSpaceOnUse" x="25" y="22" width="56" height="55">
<ellipse cx="53.3573" cy="49.5309" rx="27.3931" ry="27.3492" transform="rotate(11.5394 53.3573 49.5309)" fill="#FCA5A5"/>
</mask>
<g mask="url(#mask1_229_231)">
<ellipse cx="49.2784" cy="48.6981" rx="27.3931" ry="27.3492" transform="rotate(11.5394 49.2784 48.6981)" fill="#FFF5F5"/>
</g>
<ellipse opacity="0.8" cx="54.2268" cy="38.4204" rx="10.6443" ry="9.25049" fill="white"/>
</g>
</g>
<defs>
<linearGradient id="paint0_linear_229_231" x1="88.5421" y1="96.7048" x2="-7.34449" y2="41.287" gradientUnits="userSpaceOnUse">
<stop stop-color="#FCA5A5"/>
<stop offset="1" stop-color="#D81324"/>
</linearGradient>
<clipPath id="clip0_229_231">
<rect width="108" height="108" fill="white"/>
</clipPath>
</defs>
</svg>
